<?xml version="1.0" encoding="UTF-8"?>
<svg width="162" height="32" viewBox="0 0 162 32" fill="none" xmlns="http://www.w3.org/2000/svg">
  <path d="M0 4.8H13.6V7.2H2.8V14.4H12V16.8H2.8V28H0V4.8Z" fill="#1D2939"/>
  <path d="M28.4 4.8H31.2V28H28.4V17.6H16.4V28H13.6V4.8H16.4V15.2H28.4V4.8Z" fill="#1D2939"/>
  <path d="M34 4.8H47.6V7.2H36.8V14.4H46V16.8H36.8V25.6H47.6V28H34V4.8Z" fill="#1D2939"/>
  <path d="M50.4 4.8H53.2V25.6H63.2V28H50.4V4.8Z" fill="#1D2939"/>
  <path d="M65.6 4.8H68.4V25.6H78.4V28H65.6V4.8Z" fill="#1D2939"/>
  <path d="M80.8 4.8H94.4V7.2H83.6V14.4H92.8V16.8H83.6V25.6H94.4V28H80.8V4.8Z" fill="#1D2939"/>
  <path d="M96.8 4.8H99.6V25.6H109.6V28H96.8V4.8Z" fill="#1D2939"/>
  <path d="M124.8 28.4C122.133 28.4 119.733 27.7333 117.6 26.4C115.467 25.0667 113.8 23.2 112.6 20.8C111.4 18.4 110.8 15.6 110.8 12.4C110.8 9.2 111.4 6.4 112.6 4C113.8 1.6 115.467 -0.266667 117.6 -1.6C119.733 -2.93333 122.133 -3.6 124.8 -3.6C127.467 -3.6 129.867 -2.93333 132 -1.6C134.133 -0.266667 135.8 1.6 137 4C138.2 6.4 138.8 9.2 138.8 12.4C138.8 15.6 138.2 18.4 137 20.8C135.8 23.2 134.133 25.0667 132 26.4C129.867 27.7333 127.467 28.4 124.8 28.4ZM124.8 25.6C126.933 25.6 128.8 25.0667 130.4 24C132 22.9333 133.2 21.4 134 19.4C134.8 17.4 135.2 15.0667 135.2 12.4C135.2 9.73333 134.8 7.4 134 5.4C133.2 3.4 132 1.86667 130.4 0.8C128.8 -0.266667 126.933 -0.8 124.8 -0.8C122.667 -0.8 120.8 -0.266667 119.2 0.8C117.6 1.86667 116.4 3.4 115.6 5.4C114.8 7.4 114.4 9.73333 114.4 12.4C114.4 15.0667 114.8 17.4 115.6 19.4C116.4 21.4 117.6 22.9333 119.2 24C120.8 25.0667 122.667 25.6 124.8 25.6Z" fill="#1D2939"/>
  <path d="M141.6 4.8H144.8L151.2 23.2L157.6 4.8H160.8L152.8 28H149.6L141.6 4.8Z" fill="#1D2939"/>
</svg> 